# xmcd CD database file
#
# Track frame offsets:
#	150
#	22038
#	35902
#	68569
#	79079
#	99020
#	117044
#	139624
#	154886
#	169559
#	187514
#	197787
#	211894
#	228933
#	247580
#	263782
#	282566
#	304249
#	326020
#
# Disc length: 4555 seconds
#
# Revision: 0
# Processed by: cddbd v1.5.2PL0 Copyright (c) Steve Scherf et al.
# Submitted via: CDex 1.70beta2
#
DISCID=f611c913
DTITLE=Keith Smith and Chris Barber - Live Jazz Jamboree
DYEAR=1900
DGENRE=Jazz
TTITLE0=China Boy
TTITLE1=Please don´t talk about me when I´m gone
TTITLE2=Get baby aint I good to you
TTITLE3=Keepin´out of mischief now
TTITLE4=Tailgate Boogie
TTITLE5=Egytian Fantasy
TTITLE6=Original Dixieland One Step
TTITLE7=Sweet Substitute
TTITLE8=Dippermouth Blues
TTITLE9=Bleberry Hill
TTITLE10=New Orleans
TTITLE11=Riverboat Shuffle
TTITLE12=Moon County
TTITLE13=Perdido Street Blues
TTITLE14=Ostrich Walk
TTITLE15=Lazy Bones
TTITLE16=Sweet Georgia Brown
TTITLE17=Body and Soul
TTITLE18=Rosetta
EXTD=
EXTT0=
EXTT1=
EXTT2=
EXTT3=
EXTT4=
EXTT5=
EXTT6=
EXTT7=
EXTT8=
EXTT9=
EXTT10=
EXTT11=
EXTT12=
EXTT13=
EXTT14=
EXTT15=
EXTT16=
EXTT17=
EXTT18=
PLAYORDER=
